<svg xmlns="http://www.w3.org/2000/svg" id="zaprite" width="212" height="60" viewBox="0 0 212 60"><path d="M62.34,15.68a15.84,15.84,0,0,0-5.77-2.36,35.57,35.57,0,0,0-7.1-.68q-11.61,0-11.6,5.69a4.33,4.33,0,0,0,.32,1.7,10.31,10.31,0,0,0,.72,1.41,5.91,5.91,0,0,0,.78,1l.52.52a7.24,7.24,0,0,1,.92-.52,10.31,10.31,0,0,1,1.72-.65,18,18,0,0,1,2.61-.56A24.59,24.59,0,0,1,49,21q4.31,0,6.16,1.31A4.16,4.16,0,0,1,57,25.92c-.61-.09-1.38-.15-2.32-.2s-2.09-.06-3.48-.06q-8.34,0-12.19,2.58t-3.85,8.6A11.47,11.47,0,0,0,36,41.06a8.17,8.17,0,0,0,2.73,3.5A15.08,15.08,0,0,0,43.93,47a32,32,0,0,0,8.21.88c2,0,3.81,0,5.57-.13s3.33-.19,4.7-.33,2.51-.25,3.42-.36a10.28,10.28,0,0,0,1.76-.29V27a15.14,15.14,0,0,0-1.4-6.87A11.69,11.69,0,0,0,62.34,15.68ZM57.09,40.05a11.35,11.35,0,0,1-1.89.23c-1,.06-2,.09-3.12.09A13.42,13.42,0,0,1,48.62,40a5.23,5.23,0,0,1-1.95-.88A2.37,2.37,0,0,1,45.82,38a4.33,4.33,0,0,1-.2-1.24,4.46,4.46,0,0,1,.26-1.5,3,3,0,0,1,.95-1.28,5.2,5.2,0,0,1,1.92-.88,12.74,12.74,0,0,1,3.19-.33c1.53,0,2.67,0,3.43.1a12.44,12.44,0,0,1,1.72.23Z" fill="#3fd092"/><path d="M144.14,0A5.57,5.57,0,0,0,140,1.7a5.76,5.76,0,0,0-1.66,4.19,5.69,5.69,0,0,0,5.8,5.82A5.72,5.72,0,0,0,148.31,10,5.58,5.58,0,0,0,150,5.89a5.72,5.72,0,0,0-1.7-4.19A5.67,5.67,0,0,0,144.14,0Z" fill="#3fd092"/><path d="M144.4,13.55a6.76,6.76,0,0,0-4,1,4.09,4.09,0,0,0-1.5,3.6V45.61a16.8,16.8,0,0,0,2.06.78,10.66,10.66,0,0,0,3.39.53,5.17,5.17,0,0,0,3.78-1.25c.84-.83,1.26-2.22,1.26-4.18v-27L147.6,14A11.06,11.06,0,0,0,144.4,13.55Z" fill="#3fd092"/><path d="M202.19,33.9a17.9,17.9,0,0,0,5.93-2.06,7.36,7.36,0,0,0,3-3.27,10.65,10.65,0,0,0,.85-4.35,9.88,9.88,0,0,0-1-4.32,11.29,11.29,0,0,0-2.93-3.73,14.3,14.3,0,0,0-4.73-2.58,19.43,19.43,0,0,0-6.32-.95,19.14,19.14,0,0,0-7,1.27,17.29,17.29,0,0,0-5.67,3.57A16.13,16.13,0,0,0,180.52,23a18.5,18.5,0,0,0-1.37,7.19,19.2,19.2,0,0,0,1.37,7.46,15.75,15.75,0,0,0,9.32,9,19.51,19.51,0,0,0,6.84,1.18,31.84,31.84,0,0,0,5.38-.42,31.67,31.67,0,0,0,4.27-1,24.41,24.41,0,0,0,3-1.14h0a4.89,4.89,0,0,0,.86-.46A12.58,12.58,0,0,0,210,43a8.61,8.61,0,0,0-.85-2.68,4.26,4.26,0,0,0-2.29-2.3,3.47,3.47,0,0,0-2,.05s0,0,0,0c-.74.22-1.63.46-2.63.66A17.15,17.15,0,0,1,199,39a15.92,15.92,0,0,1-3.78-.39,8.39,8.39,0,0,1-2.57-1,5.54,5.54,0,0,1-1.56-1.41,3.61,3.61,0,0,1-.69-1.53h2.28A52.11,52.11,0,0,0,202.19,33.9Zm-12.35-6.09a9,9,0,0,1,.52-2.58A6.71,6.71,0,0,1,191.7,23a6.89,6.89,0,0,1,2.18-1.6,7.11,7.11,0,0,1,3.06-.62,5.83,5.83,0,0,1,3.72,1,3,3,0,0,1,1.24,2.39,3.6,3.6,0,0,1-.26,1.31,2.59,2.59,0,0,1-1.44,1.18,13.89,13.89,0,0,1-3.58.85A53.59,53.59,0,0,1,189.84,27.81Z" fill="#3fd092"/><path d="M134.4,15.32a9.21,9.21,0,0,0-3.16-1.83,17.33,17.33,0,0,0-6.1-.85,18.52,18.52,0,0,0-5.86.88,12.73,12.73,0,0,0-4.56,2.58,11.87,11.87,0,0,0-3,4.19A14.19,14.19,0,0,0,110.67,26V45.61a17.92,17.92,0,0,0,2.07.78,10.66,10.66,0,0,0,3.39.53,5.17,5.17,0,0,0,3.78-1.25c.84-.83,1.26-2.22,1.26-4.18V28.27c0-2.22.57-3.81,1.73-4.77a6.34,6.34,0,0,1,4.2-1.44,12.05,12.05,0,0,1,3.45.46,17.63,17.63,0,0,1,2.68,1c.13-.13.32-.35.58-.66a10.71,10.71,0,0,0,.82-1.11,6.72,6.72,0,0,0,.71-1.5,5.5,5.5,0,0,0,.3-1.84,4.06,4.06,0,0,0-.33-1.7A5.53,5.53,0,0,0,134.4,15.32Z" fill="#3fd092"/><path d="M102.24,17.48a17.16,17.16,0,0,0-5.71-3.57,19.55,19.55,0,0,0-7.13-1.27,20.77,20.77,0,0,0-8.54,1.7,15.72,15.72,0,0,0-6.32,5,15.39,15.39,0,0,0-2.42,5.17,27.75,27.75,0,0,0-.84,7.26v27a15.06,15.06,0,0,0,2,.79A10.49,10.49,0,0,0,76.7,60a5.14,5.14,0,0,0,3.75-1.24c.84-.83,1.26-2.23,1.26-4.19V44.23a12.94,12.94,0,0,0,3.55,2.33,13.92,13.92,0,0,0,6,1.14,15.81,15.81,0,0,0,6.25-1.24,15.29,15.29,0,0,0,5.12-3.53,16.86,16.86,0,0,0,3.45-5.5,19.32,19.32,0,0,0,1.27-7.2A18.49,18.49,0,0,0,106,23,16.41,16.41,0,0,0,102.24,17.48ZM94.51,36a7.49,7.49,0,0,1-8.37,1.63,7.25,7.25,0,0,1-2.38-1.7,7.54,7.54,0,0,1-1.57-2.55,8.91,8.91,0,0,1-.55-3.17,7.75,7.75,0,0,1,2.12-5.76,7.34,7.34,0,0,1,5.38-2.09,7.2,7.2,0,0,1,5.37,2.16,7.78,7.78,0,0,1,2.12,5.69A8.15,8.15,0,0,1,94.51,36Z" fill="#3fd092"/><path d="M178.35,42.48a8.52,8.52,0,0,0-.72-2.44,5.35,5.35,0,0,0-2-2.53,3.17,3.17,0,0,0-3.06.07l-.2.09a9.41,9.41,0,0,1-3.39.61,9.8,9.8,0,0,1-1.8-.16,3.67,3.67,0,0,1-1.56-.69A4,4,0,0,1,164.46,36a5.24,5.24,0,0,1-.46-2.38V23.37h11.61a16.12,16.12,0,0,0,.78-1.93,9.68,9.68,0,0,0,.52-3.18,4.64,4.64,0,0,0-1.24-3.53,6,6,0,0,0-4.17-1.18H164V4.72c-.26-.09-.87-.27-1.82-.55A11,11,0,0,0,159,3.74a6.8,6.8,0,0,0-4,1,4.06,4.06,0,0,0-1.5,3.6V35.93A11.31,11.31,0,0,0,157,44.59q3.47,3.24,9.59,3.24a19.45,19.45,0,0,0,4.1-.42,24.74,24.74,0,0,0,3.52-1,16.79,16.79,0,0,0,2.67-1.24,11.21,11.21,0,0,0,1.7-1.18h0C178.52,43.75,178.45,43.25,178.35,42.48Z" fill="#3fd092"/><path d="M31.64,21.53a6.19,6.19,0,0,0,.69-2.94,4.7,4.7,0,0,0-1.47-3.76,5.52,5.52,0,0,0-3.75-1.28H1.3a16.12,16.12,0,0,0-.78,1.93A9.39,9.39,0,0,0,0,18.66a4.3,4.3,0,0,0,1.24,3.43q1.23,1.08,4.17,1.08H17.6L3,36A10.94,10.94,0,0,0,.68,38.8a6.38,6.38,0,0,0-.68,3,4.72,4.72,0,0,0,1.47,3.76,5.48,5.48,0,0,0,3.74,1.28H31a14.14,14.14,0,0,0,.79-1.93,9.68,9.68,0,0,0,.52-3.18,4.3,4.3,0,0,0-1.24-3.43,6.36,6.36,0,0,0-4.17-1.08H14.73l14.6-12.82A10.9,10.9,0,0,0,31.64,21.53Z" fill="#3fd092"/></svg>